<svg width="49" height="49" viewBox="0 0 49 49" fill="none" xmlns="http://www.w3.org/2000/svg">
<rect width="49" height="49" rx="10" fill="#E0F6FF"/>
<path d="M19.4063 30.7366L18.7366 31.4062C18.6473 31.4955 18.5447 31.5402 18.4286 31.5402C18.3125 31.5402 18.2098 31.4955 18.1205 31.4062L11.8795 25.1652C11.7902 25.0759 11.7455 24.9732 11.7455 24.8571C11.7455 24.7411 11.7902 24.6384 11.8795 24.5491L18.1205 18.308C18.2098 18.2187 18.3125 18.1741 18.4286 18.1741C18.5447 18.1741 18.6473 18.2187 18.7366 18.308L19.4063 18.9777C19.4955 19.0669 19.5402 19.1696 19.5402 19.2857C19.5402 19.4018 19.4955 19.5044 19.4063 19.5937L14.1429 24.8571L19.4063 30.1205C19.4955 30.2098 19.5402 30.3125 19.5402 30.4286C19.5402 30.5446 19.4955 30.6473 19.4063 30.7366ZM27.3214 16.4464L22.3259 33.7366C22.2902 33.8527 22.221 33.9397 22.1183 33.9978C22.0156 34.0558 21.9107 34.0669 21.8036 34.0312L20.9732 33.8036C20.8572 33.7678 20.7701 33.6986 20.7121 33.596C20.654 33.4933 20.6429 33.3839 20.6786 33.2678L25.6741 15.9777C25.7098 15.8616 25.779 15.7745 25.8817 15.7165C25.9844 15.6585 26.0893 15.6473 26.1964 15.683L27.0268 15.9107C27.1429 15.9464 27.2299 16.0156 27.288 16.1183C27.346 16.221 27.3572 16.3303 27.3214 16.4464ZM36.1205 25.1652L29.8795 31.4062C29.7902 31.4955 29.6875 31.5402 29.5714 31.5402C29.4554 31.5402 29.3527 31.4955 29.2634 31.4062L28.5938 30.7366C28.5045 30.6473 28.4598 30.5446 28.4598 30.4286C28.4598 30.3125 28.5045 30.2098 28.5938 30.1205L33.8572 24.8571L28.5938 19.5937C28.5045 19.5044 28.4598 19.4018 28.4598 19.2857C28.4598 19.1696 28.5045 19.0669 28.5938 18.9777L29.2634 18.308C29.3527 18.2187 29.4554 18.1741 29.5714 18.1741C29.6875 18.1741 29.7902 18.2187 29.8795 18.308L36.1205 24.5491C36.2098 24.6384 36.2545 24.7411 36.2545 24.8571C36.2545 24.9732 36.2098 25.0759 36.1205 25.1652Z" fill="#00B5FF"/>
</svg>
