<svg width="49" height="49" viewBox="0 0 49 49" fill="none" xmlns="http://www.w3.org/2000/svg">
<rect width="49" height="49" rx="10" fill="#D5FFD5"/>
<path d="M16.9494 36C15.9705 36.0001 15.0137 35.7066 14.1998 35.1567C13.3858 34.6067 12.7515 33.8249 12.3768 32.9102C12.0022 31.9956 11.9041 30.9891 12.0951 30.018C12.286 29.047 12.7573 28.155 13.4495 27.4549C14.1416 26.7548 15.0234 26.2781 15.9835 26.085C16.9435 25.8919 17.9386 25.991 18.8429 26.37C19.7472 26.7489 20.52 27.3906 21.0638 28.2138C21.6075 29.0371 21.8977 30.0049 21.8975 30.995C21.896 32.3219 21.3741 33.594 20.4465 34.5323C19.5189 35.4706 18.2612 35.9984 16.9494 36ZM16.9494 27.7917C16.323 27.7916 15.7106 27.9794 15.1898 28.3313C14.6689 28.6832 14.2629 29.1834 14.0231 29.7687C13.7833 30.3541 13.7205 30.9982 13.8426 31.6196C13.9648 32.241 14.2663 32.8118 14.7092 33.2599C15.1521 33.7079 15.7164 34.0131 16.3307 34.1367C16.9451 34.2604 17.5819 34.197 18.1606 33.9545C18.7393 33.7121 19.2339 33.3015 19.5819 32.7747C19.9299 32.2479 20.1157 31.6286 20.1157 30.995C20.1148 30.1458 19.7809 29.3317 19.1873 28.7312C18.5937 28.1307 17.7889 27.7928 16.9494 27.7917V27.7917Z" fill="#04AF00"/>
<path d="M31.0514 32.6958C30.0726 32.6959 29.1158 32.4024 28.3019 31.8525C27.488 31.3025 26.8536 30.5208 26.4789 29.6062C26.1043 28.6915 26.0062 27.6851 26.1971 26.714C26.388 25.743 26.8592 24.851 27.5513 24.1509C28.2434 23.4508 29.1252 22.974 30.0851 22.7808C31.0451 22.5877 32.0402 22.6867 32.9445 23.0656C33.8488 23.4444 34.6217 24.086 35.1655 24.9092C35.7093 25.7324 35.9996 26.7002 35.9996 27.6902C35.9982 29.0172 35.4764 30.2895 34.5488 31.2279C33.6211 32.1663 32.3634 32.6942 31.0514 32.6958V32.6958ZM31.0514 24.4875C30.425 24.4874 29.8126 24.6752 29.2917 25.0271C28.7709 25.3791 28.3648 25.8793 28.1251 26.4647C27.8853 27.05 27.8225 27.6942 27.9447 28.3156C28.0669 28.937 28.3685 29.5079 28.8115 29.9559C29.2544 30.4039 29.8188 30.709 30.4331 30.8326C31.0475 30.9562 31.6843 30.8927 32.263 30.6501C32.8417 30.4076 33.3363 29.997 33.6843 29.4701C34.0322 28.9432 34.2179 28.3238 34.2178 27.6902C34.2168 26.8411 33.8829 26.027 33.2893 25.4266C32.6957 24.8262 31.8909 24.4885 31.0514 24.4875V24.4875Z" fill="#04AF00"/>
<path d="M21.0066 31.8962C20.7703 31.8962 20.5437 31.8012 20.3766 31.6322C20.2096 31.4632 20.1157 31.234 20.1157 30.995V16.1327C20.1157 15.9282 20.1844 15.7299 20.3106 15.5701C20.4368 15.4104 20.6129 15.2988 20.81 15.2537L34.9121 12.0222C35.0425 11.9924 35.1779 11.9926 35.3082 12.0229C35.4385 12.0532 35.5604 12.1127 35.6648 12.1971C35.7693 12.2815 35.8536 12.3887 35.9116 12.5105C35.9695 12.6324 35.9996 12.7659 35.9996 12.9011V27.6902C35.9996 27.9292 35.9058 28.1584 35.7387 28.3274C35.5716 28.4964 35.345 28.5914 35.1087 28.5914C34.8724 28.5914 34.6458 28.4964 34.4787 28.3274C34.3117 28.1584 34.2178 27.9292 34.2178 27.6902V14.0294L21.8975 16.853V30.995C21.8975 31.234 21.8037 31.4632 21.6366 31.6322C21.4695 31.8012 21.2429 31.8962 21.0066 31.8962V31.8962Z" fill="#04AF00"/>
<path d="M21.006 21.1382C20.7865 21.1387 20.5744 21.0572 20.4107 20.9093C20.2469 20.7614 20.1429 20.5575 20.1186 20.3368C20.0943 20.1161 20.1514 19.8941 20.279 19.7134C20.4066 19.5326 20.5957 19.4059 20.81 19.3576L34.9121 16.1261C35.1426 16.0732 35.3843 16.1152 35.5842 16.2427C35.7841 16.3701 35.9257 16.5727 35.978 16.8058C36.0302 17.0389 35.9887 17.2835 35.8627 17.4856C35.7366 17.6878 35.5364 17.8311 35.3059 17.8839L21.2038 21.1154C21.1389 21.1306 21.0726 21.1383 21.006 21.1382V21.1382Z" fill="#04AF00"/>
</svg>
