<svg width="49" height="49" viewBox="0 0 49 49" fill="none" xmlns="http://www.w3.org/2000/svg">
<rect width="49" height="49" rx="10" fill="#CBCBCB"/>
<path d="M21.288 27.856C21.288 27.024 21.44 26.328 21.744 25.768C22.064 25.208 22.624 24.616 23.424 23.992C23.968 23.592 24.392 23.24 24.696 22.936C25.016 22.632 25.248 22.336 25.392 22.048C25.536 21.744 25.608 21.392 25.608 20.992C25.608 20.384 25.392 19.92 24.96 19.6C24.544 19.28 23.944 19.12 23.16 19.12C22.456 19.12 21.784 19.224 21.144 19.432C20.504 19.64 19.864 19.904 19.224 20.224L18.144 17.968C18.88 17.584 19.672 17.264 20.52 17.008C21.384 16.752 22.344 16.624 23.4 16.624C25 16.624 26.24 17.016 27.12 17.8C28.016 18.584 28.464 19.6 28.464 20.848C28.464 21.536 28.352 22.128 28.128 22.624C27.92 23.104 27.608 23.552 27.192 23.968C26.776 24.384 26.264 24.824 25.656 25.288C25.16 25.672 24.776 26 24.504 26.272C24.248 26.544 24.072 26.816 23.976 27.088C23.896 27.36 23.856 27.68 23.856 28.048V28.648H21.288V27.856ZM20.832 32.464C20.832 31.792 21.008 31.32 21.36 31.048C21.728 30.76 22.168 30.616 22.68 30.616C23.176 30.616 23.6 30.76 23.952 31.048C24.32 31.32 24.504 31.792 24.504 32.464C24.504 33.12 24.32 33.592 23.952 33.88C23.6 34.168 23.176 34.312 22.68 34.312C22.168 34.312 21.728 34.168 21.36 33.88C21.008 33.592 20.832 33.12 20.832 32.464Z" fill="black"/>
</svg>
